<?xml version="1.0" encoding="UTF-8" standalone="no"?>
<!-- Created with Inkscape (http://www.inkscape.org/) -->

<svg
   width="18.829256mm"
   height="48.395695mm"
   viewBox="0 0 18.829256 48.395695"
   version="1.1"
   id="svg1"
   xml:space="preserve"
   inkscape:version="1.3.2 (091e20e, 2023-11-25, custom)"
   sodipodi:docname="human.svg"
   xmlns:inkscape="http://www.inkscape.org/namespaces/inkscape"
   xmlns:sodipodi="http://sodipodi.sourceforge.net/DTD/sodipodi-0.dtd"
   xmlns="http://www.w3.org/2000/svg"
   xmlns:svg="http://www.w3.org/2000/svg"><sodipodi:namedview
     id="namedview1"
     pagecolor="#ffffff"
     bordercolor="#000000"
     borderopacity="0.25"
     inkscape:showpageshadow="2"
     inkscape:pageopacity="0.0"
     inkscape:pagecheckerboard="0"
     inkscape:deskcolor="#d1d1d1"
     inkscape:document-units="mm"
     inkscape:zoom="0.5"
     inkscape:cx="412"
     inkscape:cy="769"
     inkscape:window-width="2560"
     inkscape:window-height="1369"
     inkscape:window-x="-8"
     inkscape:window-y="-8"
     inkscape:window-maximized="1"
     inkscape:current-layer="layer1" /><defs
     id="defs1" /><g
     inkscape:label="Layer 1"
     inkscape:groupmode="layer"
     id="layer1"
     transform="translate(-93.005114,-85.852504)"><path
       style="fill:#000000;fill-opacity:1;stroke:none;stroke-width:0.099999;stroke-linecap:round;stroke-linejoin:round;stroke-dasharray:none;paint-order:fill markers stroke"
       d="m 102.42776,90.134449 c -1.42017,1.11798 -3.675283,3.69348 -4.417933,6.28977 -0.77795,1.4926 -0.31982,4.483871 -0.37077,6.857921 -0.41273,1.35555 -0.7358,4.01077 -0.63562,7.80748 1.08442,1.5163 1.67429,5.18891 2.43652,9.07352 -0.53813,0.59623 -1.44919,0.44697 -2.25929,1.26992 -1.82389,1.85281 -2.15723,5.34647 -2.6667,7.22335 l -1.37717,0.68578 c -0.0741,0.46429 -0.25505,0.76141 0,1.74086 1.02141,0.79642 1.6387,1.92822 2.38354,2.95417 l 2.96619,-0.15832 -1.90681,-3.95648 c 1.76297,-2.45624 3.30308,-5.93346 5.296773,-7.3327 0.55648,-1.05905 0.65734,-2.36341 0.79676,-3.49796 0.0496,-0.40421 0.13963,-1.40081 0.28684,-1.75933 0.29111,0.18958 1.59618,1.51734 1.72372,2.35589 0.58439,4.26171 0.14487,8.06152 -0.26779,13.53891 l -0.20901,1.02097 7.62736,-0.0528 -0.31778,-1.47709 -3.84096,-1.22502 c 0.23932,-4.62312 1.58681,-11.92434 0.71796,-13.86934 -1.37617,-1.95058 -2.05066,-1.80025 -5.14,-8.53906 0.0291,-0.70766 0.42678,-2.78992 0.72755,-3.42295 1.10323,0.51849 1.83742,2.12656 2.55644,2.26237 0.85348,1.41788 1.21115,1.49545 1.74796,2.05738 0.82982,0.64742 1.65967,0.67011 2.48949,0.68581 0.652,-0.48955 0.84443,-1.10387 0.95343,-1.74086 -0.83155,-1.4317 -1.83135,-1.85796 -2.86028,-2.11014 -0.6433,-0.13024 -1.39634,0.14042 -1.90684,-0.47478 l -2.42013,-3.27573 c 0.17489,-1.49054 1.20535,-3.437691 0.80463,-4.558141 -0.48976,-1.11184 -1.00303,-2.20019 -1.05936,-3.74546 0.13349,-0.59344 0.4633,-0.794 0.81672,-0.94747 l 1.23075,-0.17574 c 1.1402,0.11687 1.72831,0.78222 2.5046,0.82836 0.17567,-0.18268 0.14992,-0.0833 0.14376,-0.34945 -0.004,-0.1894 -0.0237,-0.25228 0.10022,-0.44954 0.0557,-0.0887 0.31337,-0.003 0.36195,-0.0909 0.0976,-0.17708 0.17727,-0.34858 0.22477,-0.49647 0.20924,-0.65148 0.21385,-1.36524 0.17331,-2.08116 -0.0225,-0.39654 -0.29263,-0.57742 -0.31567,-0.96507 -0.014,-0.23547 0.21076,-0.68373 0.21266,-0.90986 0.007,-0.81654 -0.64404,-1.63652 -1.09648,-2.1429 -0.58052,-0.78886 -1.7009,-1.23457 -3.27072,-1.10853 -1.20969,0.12208 -2.22045,0.7738 -2.59545,1.52982 -0.33572,0.72831 -0.29499,1.76906 -0.34907,2.73112 z"
       id="path2"
       sodipodi:nodetypes="cccccscccccccsccccccccccccccccccccccsssssssccccc" /></g></svg>
