<?xml version="1.0" encoding="UTF-8" standalone="no"?>
<!-- Created with Inkscape (http://www.inkscape.org/) -->

<svg
   width="24.618893mm"
   height="30.523531mm"
   viewBox="0 0 24.618893 30.523531"
   version="1.1"
   id="svg1"
   inkscape:version="1.3.2 (091e20e, 2023-11-25, custom)"
   sodipodi:docname="monkey.svg"
   xmlns:inkscape="http://www.inkscape.org/namespaces/inkscape"
   xmlns:sodipodi="http://sodipodi.sourceforge.net/DTD/sodipodi-0.dtd"
   xmlns="http://www.w3.org/2000/svg"
   xmlns:svg="http://www.w3.org/2000/svg">
  <sodipodi:namedview
     id="namedview1"
     pagecolor="#ffffff"
     bordercolor="#000000"
     borderopacity="0.25"
     inkscape:showpageshadow="2"
     inkscape:pageopacity="0.0"
     inkscape:pagecheckerboard="0"
     inkscape:deskcolor="#d1d1d1"
     inkscape:document-units="mm"
     inkscape:zoom="1.0610059"
     inkscape:cx="295.00307"
     inkscape:cy="252.11924"
     inkscape:window-width="2560"
     inkscape:window-height="1369"
     inkscape:window-x="-8"
     inkscape:window-y="-8"
     inkscape:window-maximized="1"
     inkscape:current-layer="layer1" />
  <defs
     id="defs1" />
  <g
     inkscape:label="Layer 1"
     inkscape:groupmode="layer"
     id="layer1"
     transform="translate(-26.9875,-81.756248)">
    <path
       style="fill:#000000;stroke:none;stroke-width:0.2;stroke-linecap:square;stroke-dasharray:none;paint-order:fill markers stroke"
       d="m 31.21786,98.79597 c 0.266767,-0.45841 0.882673,-1.23077 1.61268,-1.5691 1.088951,-0.52833 3.731037,-0.28407 5.404663,0.26151 1.52366,0.53909 2.787486,1.45609 3.661222,1.35116 0.187549,-0.016 0.654526,-0.009 1.136901,-0.17388 0.878941,-0.30237 1.91442,-0.79498 2.056433,-0.85026 0.484111,-0.18622 1.023761,-0.12293 1.557536,-0.0229 0.344714,0.0724 0.78473,0.34682 0.870046,0.70946 0.146831,0.48544 0.05664,1.00833 0.01942,1.52286 -0.01462,0.26715 0.579262,0.5969 0.523032,1.08965 -0.01554,0.56801 -0.90111,0.98653 -1.089649,0.82813 -0.117698,-0.0809 -1.181462,-0.97193 -2.105145,-0.10419 -0.299709,0.31489 0.155423,1.27153 0.311947,2.23487 0.127089,0.78228 0.105291,1.72096 0.206286,2.43636 0.04807,0.43124 2.133993,2.23124 3.426721,3.26719 0.118178,0.0702 0.406081,0.3751 0.851147,0.4471 0.659798,0.10671 1.821251,0.0583 1.924533,0.34083 0.08324,0.32537 -0.07968,0.63857 -0.564373,0.59518 -1.110197,-0.35572 -1.833596,-0.0797 -2.527234,-0.27936 -0.912843,-0.26939 -1.734381,-0.94494 -2.671378,-1.71351 -0.387854,-0.31814 -0.957496,-0.68919 -1.201728,-1.10485 -0.330561,-0.63501 -0.549747,-1.245 -0.772012,-1.92663 -0.255301,-0.78296 -0.375533,-1.6889 -0.595716,-2.184 -0.1546,-0.34764 -0.413904,-0.4235 -0.584136,-0.40417 -0.544297,0.10694 -0.643978,1.18736 -0.955416,1.78755 -0.479958,0.65583 -0.834448,1.023 -0.83214,1.29443 -0.164449,0.44629 0.201876,3.90581 0.237037,3.99636 0.06222,0.19925 0.168721,0.62492 0.51932,0.67806 0.585857,0.0404 1.731457,-0.16497 1.801698,0.13345 0.05358,0.29482 -0.405394,0.47952 -0.61445,0.49691 -0.698884,0.074 -1.250868,-0.007 -1.551612,-0.12636 -0.711636,-0.28002 -1.116857,-0.79089 -1.210527,-0.98361 -0.05603,-0.10191 -0.0858,-0.27492 -0.0568,-0.56308 0.03887,-0.38648 0.03823,-1.47798 -0.218488,-2.05246 -0.250001,-0.47589 -0.248123,-0.67331 -0.262605,-0.8804 -0.01325,-0.44593 0.225754,-1.05005 0.520598,-1.61549 0.290962,-0.55796 0.738701,-1.18989 0.670198,-1.53757 -0.19806,-0.74734 -1.269383,-0.79116 -1.648811,-0.82185 -1.113812,-0.0295 -2.033256,-1.28611 -2.253789,-0.97728 -0.366292,0.43867 0.51656,1.32916 0.801319,2.00332 0.32995,1.00387 0.286511,2.18595 -0.06165,3.51346 l -0.246561,1.10951 c -0.0353,0.24483 -0.07205,0.43691 -0.09245,1.2328 -0.0075,0.10054 -0.0016,0.16658 0.09245,0.2774 0.109244,0.0912 0.517385,0.28397 0.98568,0.44847 0.140731,0.0494 0.294136,0.0704 0.432038,0.13709 0.357831,0.16475 1.221792,0.44164 1.201977,0.83214 -0.03473,0.18942 -0.175736,0.32161 -0.510462,0.34951 -0.478998,-0.0309 -0.877221,-0.46577 -1.568946,-0.50516 -0.445923,-0.0137 -1.27069,-0.23172 -1.467091,-0.34844 -0.201785,-0.10008 -0.458264,-0.38784 -0.48121,-0.65459 -0.05029,-0.90923 -0.002,-1.66647 0.1206,-2.38767 0.106319,-0.62576 0.287775,-1.22085 0.270354,-1.90878 -0.03763,-0.72239 -0.315747,-1.65922 -0.500758,-1.79342 -0.144866,-0.12522 -0.377198,-0.18668 -0.550923,0.0183 -0.302355,0.49177 -0.05765,1.07144 -0.140251,1.52116 -0.06869,0.35513 -0.326473,0.44772 -0.53367,0.60275 l -0.924597,0.38995 c -0.482261,0.12613 -0.966907,0.27845 -1.43881,0.29063 -0.445869,0.0398 -0.808565,0.0338 -1.119575,0.14281 -0.297906,0.11745 -0.559086,0.31736 -0.769843,0.63081 -0.08735,0.2029 -0.189469,0.64655 0.03016,1.46488 0.100013,0.39674 0.959751,0.61466 1.417714,1.29445 0.171874,0.4737 0.0069,0.53505 -0.123274,0.58559 -0.243083,0.075 -0.575512,-0.37324 -1.076784,-0.68302 -0.392023,-0.24227 -0.818079,-0.35211 -0.918992,-0.43779 -0.292269,-0.18212 -0.821524,-1.81906 -0.64656,-2.58025 0.06887,-0.30364 1.026933,-0.98582 3.659677,-1.91646 0.265505,-0.0939 0.554685,-0.408 0.643133,-0.63609 0.190657,-0.44099 -0.865144,-1.36773 -1.456007,-2.72862 -0.133121,-0.57638 -0.172217,-1.67321 -0.396545,-2.06846 -0.221458,-0.28484 -0.269799,-0.42882 -0.876674,-0.63426 -0.543763,-0.1716 -1.434874,-0.63442 -2.321442,-1.50599 -1.039404,-1.2151 -2.25925,-4.15291 0.09704,-6.52276 1.557082,-1.30788 4.577616,-2.55846 5.704415,-3.18909 0.280369,-0.15218 1.00915,-0.68393 1.401591,-1.67519 0.355229,-0.89728 0.700728,-2.18675 0.144341,-3.16664 -0.207657,-0.3657 -0.672223,-0.58981 -1.119131,-0.87657 -0.323445,-0.20748 -1.024749,-0.30738 -1.031245,-0.70784 -0.02651,-0.42557 0.585582,-0.6891 1.398456,-0.44305 1.70506,0.5924 2.040067,2.54455 2.095756,2.95872 0.266529,3.05028 -1.844016,4.46764 -2.196993,4.67944 -0.655971,0.31635 -5.503024,3.00597 -5.939472,3.67277 -1.172021,1.95706 -0.662996,3.64661 0.69115,4.79169 0.260698,0.2205 0.561277,0.5863 0.884624,0.71273 0.268228,0.10487 0.686972,0.38014 0.841929,0.12932 z"
       id="path1"
       sodipodi:nodetypes="ccccscccccccsccscccscsscccccccccsccsccccccccsccccccsccccccccccccsccscccccccssscccccsscc" />
  </g>
</svg>
