<?xml version="1.0" encoding="UTF-8" standalone="no"?>
<!-- Created with Inkscape (http://www.inkscape.org/) -->

<svg
   width="41.012844mm"
   height="27.634642mm"
   viewBox="0 0 41.012844 27.634642"
   version="1.1"
   id="svg1"
   inkscape:version="1.3.2 (091e20e, 2023-11-25, custom)"
   sodipodi:docname="mouse.svg"
   xmlns:inkscape="http://www.inkscape.org/namespaces/inkscape"
   xmlns:sodipodi="http://sodipodi.sourceforge.net/DTD/sodipodi-0.dtd"
   xmlns="http://www.w3.org/2000/svg"
   xmlns:svg="http://www.w3.org/2000/svg">
  <sodipodi:namedview
     id="namedview1"
     pagecolor="#ffffff"
     bordercolor="#000000"
     borderopacity="0.25"
     inkscape:showpageshadow="2"
     inkscape:pageopacity="0.0"
     inkscape:pagecheckerboard="0"
     inkscape:deskcolor="#d1d1d1"
     inkscape:document-units="mm"
     inkscape:zoom="1.0610059"
     inkscape:cx="300.65809"
     inkscape:cy="248.34923"
     inkscape:window-width="2560"
     inkscape:window-height="1369"
     inkscape:window-x="-8"
     inkscape:window-y="-8"
     inkscape:window-maximized="1"
     inkscape:current-layer="layer1" />
  <defs
     id="defs1" />
  <g
     inkscape:label="Layer 1"
     inkscape:groupmode="layer"
     id="layer1"
     transform="translate(-25.4,-82.814582)">
    <path
       style="fill:#000000;stroke:none;stroke-width:0.1;stroke-linecap:round;stroke-linejoin:round;stroke-dasharray:none;paint-order:fill markers stroke"
       d="m 33.122769,84.702915 c -0.37705,0.833063 -0.475422,1.772288 -0.529167,2.728515 -3.020662,2.462695 -5.793869,5.066345 -7.146579,8.47914 -0.01579,0.03983 -0.04378,0.07874 -0.04678,0.11982 -0.01175,0.279503 0.404912,0.774931 0.806881,0.857647 l 0.175396,-0.01754 c 0.171182,-0.02539 0.261225,0.347273 0.432643,0.409257 1.330128,0.385187 2.4625,0.09236 3.484526,-0.578805 0.381999,-0.143306 1.574015,-0.05968 1.855697,0.181068 0.438929,0.364808 0.79278,0.828874 1.099675,1.347722 0.261482,0.529832 -1.021582,1.135009 -1.569747,1.704336 -1.39539,0.07034 -2.233978,0.411955 -2.77125,0.900365 -0.04505,0.27539 0.262496,0.23532 0.631424,0.14031 -0.156371,0.19989 -0.514069,0.47647 -0.245554,0.5145 l 0.315712,-0.1637 0.105237,0.31571 c 0.199157,0.28349 0.744224,-0.39389 1.122532,-0.60804 l -0.11693,0.61973 c 0.18016,0.31014 0.594311,-0.28225 0.912057,-0.5028 1.329402,-0.0893 2.413858,-0.5999 3.192201,-1.637025 1.345949,-0.249302 2.698045,-0.728118 3.99902,0.701585 -0.0534,0.59062 -0.320959,1.03848 -0.748355,1.37978 -0.689001,-0.0254 -1.415517,-0.0847 -1.789035,0.17539 -0.567699,0.17514 -1.085589,0.75253 -0.748355,0.76005 0.215786,-0.0651 0.509536,-0.19155 1.157611,-0.59635 -0.239467,0.24864 -0.774679,0.4859 -0.65481,0.74836 0.209808,0.26022 0.511358,-0.17683 0.666503,-0.0351 0.02104,0.0965 -0.03404,0.18336 -0.02339,0.28063 0.103139,0.25253 0.464988,0.01 0.467726,0.0234 0.169908,-0.18175 0.327475,-0.41287 0.526187,-0.47942 0.17144,-0.0528 0.276677,-0.002 0.339098,0.11693 0.07585,0.22051 -0.122623,0.31632 -0.198782,0.46773 0.0035,0.22466 0.303954,0.11746 0.561266,0.0585 0.462391,-0.20957 0.565495,-0.47046 0.713276,-0.72497 0.117409,-0.17002 0.284184,-0.0789 0.479415,-0.0585 0.357177,-0.19013 0.577276,-0.80293 0.748354,-1.56687 0.873436,0.0959 1.821276,-1.494727 2.736172,-2.338608 1.281644,0.243981 2.532296,0.28653 3.938821,0.387783 1.23361,0.0888 2.562506,0.367013 4.222922,1.097233 l 0.53788,-0.05846 0.771743,0.385862 c -0.585383,0.40086 -1.262123,0.72558 -2.034591,0.97053 l -1.068932,0.10591 c -1.371879,0.24429 -2.127762,0.90858 -2.824851,1.61296 l 0.05847,0.24556 c -0.102689,0.19592 -0.276671,0.42495 -0.175401,0.52618 0.09397,0.0847 0.229543,0.0712 0.409257,-0.0468 0.395443,-0.23604 1.063148,-0.62649 1.169304,-0.53788 0.189451,0.16559 -0.413154,0.43557 -0.374177,0.63143 0.03272,0.22513 0.33379,0.0961 0.491107,0.0351 0.47069,-0.3444 0.917813,-0.72414 1.461631,-0.95883 0.09745,-0.0707 -0.525579,0.87335 -0.315712,0.98221 0.30244,0.28109 1.255693,-0.94939 1.883539,-1.42408 1.213396,-0.59169 2.456116,-1.14775 3.522266,-1.91823 l 0.0992,-0.694531 2.61276,-0.892969 c 0.62764,-0.206415 1.24592,-0.457764 1.81901,-0.926041 0.0851,-0.07827 0.48074,-0.260159 3.98529,2.910411 1.62988,1.89962 2.57991,3.98227 0.19843,6.96185 -2.05268,2.10801 -4.82418,1.66745 -7.54062,1.42214 -0.86589,-0.28818 -4.386589,-0.5911 -8.268231,-2.38125 -1.333047,-0.40796 -2.851256,-1.26031 -3.985286,-1.19063 2.337795,1.24963 6.340218,2.86576 9.872267,4.13412 3.20367,0.83915 6.48607,0.98941 9.93841,-0.34727 1.04456,-0.99073 3.8373,-2.03516 2.66238,-7.45794 C 64.85399,99.142536 62.3629,97.781189 60.44098,96.443801 59.81267,87.71065 54.8548,83.253064 48.270145,82.817759 c -1.885372,-0.05852 -3.669762,0.701422 -5.518239,1.454584 -1.056037,0.430281 -2.116186,1.190132 -3.193394,1.564998 -0.440846,0.153414 -0.908886,-0.05456 -1.342534,0.08927 l -2.050521,0.396875 -0.731822,-0.04077 c -0.04828,-0.980898 1.065816,-2.42914 -0.326511,-2.869646 -1.046567,-0.377539 -1.369774,0.761647 -1.984376,1.289843 z"
       id="path1"
       sodipodi:nodetypes="ccsccccccccccccccccccccccccccccccccccscccccccccccccccccccccccccccccsscccccc" />
  </g>
</svg>
