<?xml version="1.0" encoding="UTF-8" standalone="no"?>
<!-- Created with Inkscape (http://www.inkscape.org/) -->

<svg
   version="1.1"
   width="80.787224"
   height="49.474667"
   id="svg2"
   sodipodi:docname="scissor.svg"
   inkscape:version="1.1.2 (1:1.1+202202050852+0a00cf5339)"
   inkscape:export-filename="/home/chenken/Dropbox/Documents/Manuscirpts/plots/icon_scissor.png"
   inkscape:export-xdpi="600"
   inkscape:export-ydpi="600"
   xmlns:inkscape="http://www.inkscape.org/namespaces/inkscape"
   xmlns:sodipodi="http://sodipodi.sourceforge.net/DTD/sodipodi-0.dtd"
   xmlns="http://www.w3.org/2000/svg"
   xmlns:svg="http://www.w3.org/2000/svg">
  <sodipodi:namedview
     id="namedview9"
     pagecolor="#ffffff"
     bordercolor="#666666"
     borderopacity="1.0"
     inkscape:pageshadow="2"
     inkscape:pageopacity="1"
     inkscape:pagecheckerboard="0"
     showgrid="false"
     inkscape:zoom="6.2083333"
     inkscape:cx="78.845638"
     inkscape:cy="15.543624"
     inkscape:window-width="2514"
     inkscape:window-height="1376"
     inkscape:window-x="46"
     inkscape:window-y="27"
     inkscape:window-maximized="1"
     inkscape:current-layer="g1068" />
  <defs
     id="defs4">
    <linearGradient
       id="linearGradient2135"
       inkscape:swatch="solid">
      <stop
         style="stop-color:#000000;stop-opacity:1;"
         offset="0"
         id="stop2133" />
    </linearGradient>
    <marker
       refX="0"
       refY="0"
       orient="auto"
       id="Scissors"
       style="overflow:visible">
      <path
         d="M 9.0898857,-3.6061018 C 8.1198849,-4.7769976 6.3697607,-4.7358294 5.0623558,-4.2327734 l -8.2124046,3.0779029 c -2.3882933,-1.3067135 -4.7482873,-0.9325372 -4.7482873,-1.5687873 0,-0.4973164 0.4566662,-0.3883222 0.3883068,-1.6831941 -0.065635,-1.2432767 -1.3635771,-2.1630796 -2.5903987,-2.0816435 -1.227271,-0.00735 -2.499439,0.9331613 -2.510341,2.2300611 -0.09143,1.3063864 1.007209,2.5196896 2.306764,2.6052316 1.5223406,0.2266616 4.218258,-0.6955566 5.482945,1.57086006 -0.9422847,1.73825774 -2.6140244,1.74307674 -4.1255107,1.65607034 -1.2548743,-0.072235 -2.7620933,0.2873979 -3.3606483,1.5208605 -0.578367,1.1820862 -0.0112,2.8646022 1.316749,3.226412 1.3401912,0.4918277 3.1806689,-0.129711 3.4993722,-1.6707242 0.2456585,-1.187823 -0.5953659,-1.7459574 -0.2725074,-2.1771537 0.2436135,-0.32536 1.7907806,-0.1368452 4.5471053,-1.3748244 L 5.6763468,4.2330688 C 6.8000164,4.5467672 8.1730685,4.5362646 9.1684433,3.4313614 l -9.22008423,-3.48508362 z m -18.3078016,-1.900504 c 1.294559,0.7227998 1.1888392,2.6835702 -0.1564272,3.0632889 -1.2165179,0.423661 -2.7710269,-0.7589694 -2.3831779,-2.0774648 0.227148,-1.0818519 1.653387,-1.480632 2.5396051,-0.9858241 z m 0.056264,8.0173649 c 1.3508301,0.4988648 1.1214429,2.7844356 -0.2522207,3.091609 -0.9110594,0.3163391 -2.2135494,-0.1387976 -2.3056964,-1.2121394 -0.177609,-1.305055 1.356085,-2.4841482 2.5579171,-1.8794696 z"
         id="schere"
         style="marker-start:none" />
    </marker>
  </defs>
  <g
     transform="translate(27.740051,-943.7486)"
     id="layer1">
    <g
       transform="matrix(4.2610846,-1.2351263,1.2351263,4.2610846,-1337.7659,-2994.9736)"
       id="g4593">
      <g
         id="g2535">
        <g
           id="g2524">
          <g
             id="g2514">
            <g
               id="g2329">
              <g
                 id="g848">
                <g
                   id="g2425"
                   transform="matrix(0.99917344,0.04065018,0.04065018,-0.99917344,-38.424739,1887.4586)" />
                <g
                   id="g1080"
                   transform="rotate(90,46.591235,941.58921)">
                  <g
                     id="g2419"
                     transform="rotate(-70,46.862678,943.97958)" />
                  <g
                     id="g1068"
                     transform="matrix(0.21353726,-0.97693492,-0.97693492,-0.21353726,960.84118,1191.8518)">
                    <g
                       id="g1872"
                       inkscape:export-filename="/home/chenken/Dropbox/Documents/Manuscirpts/plots/g1872.png"
                       inkscape:export-xdpi="600"
                       inkscape:export-ydpi="600">
                      <g
                         id="g1850">
                        <path
                           style="fill:#000000;fill-rule:evenodd;stroke:none;stroke-width:0.225404px;stroke-linecap:butt;stroke-linejoin:miter;stroke-opacity:1"
                           d="m 39.508349,943.98349 12.270303,3.8837 c 1.40732,0.36461 3.155166,0.13392 4.193742,0.0619 l -16.199331,-4.69558"
                           id="path880"
                           sodipodi:nodetypes="cccc" />
                        <g
                           id="g1066"
                           transform="rotate(16.164863)">
                          <path
                             style="color:#000000;fill:#ffffff;fill-opacity:0.298039;stroke-width:0.788916;stroke-linecap:square;stroke-linejoin:round;-inkscape-stroke:none;paint-order:fill markers stroke"
                             d="m 301.87892,893.61285 a 1.7585251,1.7585251 0 0 1 -1.75853,1.75853 1.7585251,1.7585251 0 0 1 -1.75852,-1.75853 1.7585251,1.7585251 0 0 1 1.75852,-1.75852 1.7585251,1.7585251 0 0 1 1.75853,1.75852 z"
                             id="path877" />
                          <path
                             style="color:#000000;fill:#000000;stroke-linecap:square;stroke-linejoin:round;-inkscape-stroke:none;paint-order:fill markers stroke"
                             d="m 300.12109,891.45898 c -1.18438,10e-6 -2.15429,0.96992 -2.15429,2.1543 -10e-6,1.18439 0.96991,2.15234 2.15429,2.15234 1.18439,10e-6 2.15235,-0.96795 2.15235,-2.15234 -10e-6,-1.18438 -0.96796,-2.1543 -2.15235,-2.1543 z m 0,0.78907 c 0.75803,-1e-5 1.36328,0.60721 1.36328,1.36523 10e-6,0.75803 -0.60525,1.36328 -1.36328,1.36328 -0.75802,0 -1.36523,-0.60525 -1.36523,-1.36328 0,-0.75802 0.60721,-1.36523 1.36523,-1.36523 z"
                             id="path874" />
                        </g>
                      </g>
                      <g
                         id="g1860"
                         transform="matrix(0.99105258,-0.13347203,-0.13347203,-0.99105258,126.52003,1887.3472)">
                        <path
                           style="fill:#000000;fill-rule:evenodd;stroke:none;stroke-width:0.225404px;stroke-linecap:butt;stroke-linejoin:miter;stroke-opacity:1"
                           d="m 39.508349,943.98349 12.270303,3.8837 c 1.40732,0.36461 3.155166,0.13392 4.193742,0.0619 l -16.199331,-4.69558"
                           id="path871"
                           sodipodi:nodetypes="cccc" />
                        <g
                           id="g1858"
                           transform="rotate(16.164863)">
                          <path
                             style="color:#000000;fill:#ffffff;fill-opacity:0.298039;stroke-width:0.788916;stroke-linecap:square;stroke-linejoin:round;-inkscape-stroke:none;paint-order:fill markers stroke"
                             d="m 301.87892,893.61285 a 1.7585251,1.7585251 0 0 1 -1.75853,1.75853 1.7585251,1.7585251 0 0 1 -1.75852,-1.75853 1.7585251,1.7585251 0 0 1 1.75852,-1.75852 1.7585251,1.7585251 0 0 1 1.75853,1.75852 z"
                             id="path868" />
                          <path
                             style="color:#000000;fill:#000000;stroke-linecap:square;stroke-linejoin:round;-inkscape-stroke:none;paint-order:fill markers stroke"
                             d="m 300.12109,891.45898 c -1.18438,10e-6 -2.15429,0.96992 -2.15429,2.1543 -10e-6,1.18439 0.96991,2.15234 2.15429,2.15234 1.18439,10e-6 2.15235,-0.96795 2.15235,-2.15234 -10e-6,-1.18438 -0.96796,-2.1543 -2.15235,-2.1543 z m 0,0.78907 c 0.75803,-1e-5 1.36328,0.60721 1.36328,1.36523 10e-6,0.75803 -0.60525,1.36328 -1.36328,1.36328 -0.75802,0 -1.36523,-0.60525 -1.36523,-1.36328 0,-0.75802 0.60721,-1.36523 1.36523,-1.36523 z"
                             id="path865" />
                        </g>
                      </g>
                    </g>
                  </g>
                </g>
              </g>
            </g>
          </g>
        </g>
      </g>
    </g>
  </g>
</svg>
